<svg width="27" height="27" viewBox="0 0 27 27" fill="none" xmlns="http://www.w3.org/2000/svg">
<path fill-rule="evenodd" clip-rule="evenodd" d="M16.7396 18.5565C12.7793 21.7284 6.98225 21.4787 3.31108 17.8076C-0.627945 13.8685 -0.627945 7.4821 3.31108 3.54308C7.25011 -0.395951 13.6365 -0.39595 17.5756 3.54308C21.2467 7.21424 21.4964 13.0113 18.3245 16.9715L26.0286 24.6756C26.4662 25.1133 26.4662 25.8229 26.0286 26.2605C25.5909 26.6982 24.8813 26.6982 24.4436 26.2605L16.7396 18.5565ZM4.89602 16.2226C1.83234 13.1589 1.83234 8.19171 4.89602 5.12802C7.95971 2.06433 12.9269 2.06433 15.9906 5.12802C19.0521 8.18946 19.0543 13.1516 15.9974 16.2159C15.9951 16.2181 15.9928 16.2203 15.9906 16.2226C15.9883 16.2248 15.9861 16.2271 15.9839 16.2293C12.9197 19.2863 7.95747 19.2841 4.89602 16.2226Z" fill="#777777"/>
</svg>
