<svg width="101" height="51" viewBox="0 0 101 51" fill="none" xmlns="http://www.w3.org/2000/svg">
<path fill-rule="evenodd" clip-rule="evenodd" d="M87.0721 17.2472C85.8479 16.6093 84.4558 16.2487 82.9793 16.2487C78.0883 16.2487 74.1233 20.2059 74.1233 25.0875C74.1233 29.969 78.0883 33.9263 82.9793 33.9263C84.4558 33.9263 85.8479 33.5657 87.0719 32.9279C84.9094 35.3483 81.7611 36.8725 78.2561 36.8725C71.7347 36.8725 66.4482 31.5962 66.4482 25.0874C66.4482 18.5787 71.7347 13.3024 78.2561 13.3024C81.7611 13.3024 84.9095 14.8266 87.0721 17.2472Z" fill="#C4C4C4"/>
<circle cx="25.003" cy="25.0874" r="7.89383" fill="#C4C4C4"/>
<line x1="25.7145" y1="11.8561" x2="25.7145" y2="14.4478" stroke="#C4C4C4" stroke-width="3" stroke-linecap="round"/>
<line x1="25.7145" y1="35.7271" x2="25.7145" y2="38.3188" stroke="#C4C4C4" stroke-width="3" stroke-linecap="round"/>
<line x1="38.2343" y1="26.1752" x2="35.6426" y2="26.1752" stroke="#C4C4C4" stroke-width="3" stroke-linecap="round"/>
<line x1="14.3633" y1="26.1752" x2="11.7716" y2="26.1752" stroke="#C4C4C4" stroke-width="3" stroke-linecap="round"/>
<line x1="35.4196" y1="16.7921" x2="33.587" y2="18.6247" stroke="#C4C4C4" stroke-width="3" stroke-linecap="round"/>
<line x1="18.5403" y1="33.6715" x2="16.7076" y2="35.5041" stroke="#C4C4C4" stroke-width="3" stroke-linecap="round"/>
<line x1="33.2982" y1="35.504" x2="31.4656" y2="33.6714" stroke="#C4C4C4" stroke-width="3" stroke-linecap="round"/>
<line x1="16.4189" y1="18.6246" x2="14.5863" y2="16.792" stroke="#C4C4C4" stroke-width="3" stroke-linecap="round"/>
</svg>
