<svg width="151" height="38" viewBox="0 0 151 38" fill="none" xmlns="http://www.w3.org/2000/svg">
<g clip-path="url(#clip0_932_2697)">
<path d="M64.6731 0C62.1617 0 60.2467 0.826448 58.9278 2.47935C57.6086 4.1321 56.949 6.46445 56.9491 9.47638V19.9749C56.9491 22.9872 57.6087 25.3196 58.9278 26.9721C60.2463 28.625 62.1614 29.4514 64.6731 29.4514C67.1835 29.4514 69.0985 28.6249 70.4182 26.9721C71.7367 25.3192 72.3963 22.9868 72.3969 19.9749V17.0739H67.4382V20.4157C67.4382 22.7667 66.5641 23.942 64.8159 23.9418C63.0676 23.9418 62.1935 22.7665 62.1936 20.4157V9.09079C62.1936 6.70358 63.0677 5.50984 64.8159 5.50956C66.5638 5.50956 67.4379 6.7033 67.4382 9.09079V13.5536H72.3969V9.47638C72.3969 6.46511 71.7373 4.13276 70.4182 2.47934C69.0989 0.826437 67.1839 -9.00618e-06 64.6731 0Z" fill="#E50914" fill-opacity="0.8"/>
<path d="M20.6648 0.525879L18.2334 26.6099L15.7539 0.525879H10.0326L7.45797 26.6099L5.12177 0.525879H0.0678711L3.3133 37.4999C4.73038 37.238 7.28154 36.7758 10.6796 36.1973L12.7979 13.0878H12.8932L14.9465 35.4854C17.164 35.1228 19.6069 34.7346 22.2267 34.335L25.1943 0.525879H20.6648Z" fill="#E50914" fill-opacity="0.8"/>
<path d="M29.8286 0.525879L25.1553 33.6861C26.7339 33.4559 28.361 33.2246 30.0268 32.9948L30.8788 26.5479H35.4273L36.2611 32.1673C37.9191 31.9562 39.6002 31.7501 41.3046 31.5488L36.9324 0.525879H29.8286ZM31.2617 21.3136L33.1183 7.24763H33.2137L34.9299 21.3136H31.2617Z" fill="#E50914" fill-opacity="0.8"/>
<path d="M39.661 6.03546H45.144V30.9314C46.8847 30.7458 48.6329 30.5698 50.3886 30.4034V6.03546H55.8716V0.525879H39.661L39.661 6.03546Z" fill="#E50914" fill-opacity="0.8"/>
<path d="M85.4443 14.0758H79.8185V0.525879H74.574V29.0269C76.2756 29.033 78.0273 29.0641 79.8185 29.1171V19.5853H85.4443V29.3471C87.1706 29.4357 88.9188 29.5402 90.6891 29.6605V0.525879H85.4443V14.0758Z" fill="#E50914" fill-opacity="0.8"/>
<path d="M93.4147 29.9461C95.1554 30.0822 96.9036 30.2298 98.6592 30.3889V20.1362H105.43V14.6267H98.6592V6.03546H107.289V0.525879H93.4147V29.9461Z" fill="#E50914" fill-opacity="0.8"/>
<path d="M125.032 33.5607C126.837 33.8061 128.59 34.0507 130.277 34.2913V0.525879H125.032V33.5607Z" fill="#E50914" fill-opacity="0.8"/>
<path d="M150.068 0.525879H145.109L141.486 12.9775H141.39L137.862 0.525879H132.332L138.1 19.3688L133.351 34.8401C134.998 35.0828 136.564 35.3186 138.036 35.5441L140.914 25.6495H141.009L144.086 36.494C146.601 36.8989 148.57 37.2288 149.849 37.4466L144.299 19.3688L150.068 0.525879Z" fill="#E50914" fill-opacity="0.8"/>
<path d="M114.587 0.525879H109.342V31.5218C109.352 31.5229 109.362 31.524 109.372 31.5252L109.342 31.5529L123.216 33.0476V27.5381L114.587 26.7104L114.587 0.525879Z" fill="#E50914" fill-opacity="0.8"/>
</g>
<defs>
<clipPath id="clip0_932_2697">
<rect width="150" height="37.5" fill="white" transform="translate(0.0678711)"/>
</clipPath>
</defs>
</svg>
